<svg width="48" height="48" viewBox="0 0 48 48" fill="none" xmlns="http://www.w3.org/2000/svg">
<circle cx="24" cy="24" r="24" fill="#CFBACD"/>
<rect x="10.8889" y="13" width="5.77778" height="2.88889" fill="#914D8B"/>
<rect x="8" y="15.8889" width="11.5556" height="2.88889" fill="#914D8B"/>
<rect x="16.6667" y="18.7778" width="2.88889" height="2.88889" fill="#914D8B"/>
<rect x="8" y="18.7778" width="2.88889" height="2.88889" fill="#914D8B"/>
<rect x="10.8889" y="24.5556" width="26" height="2.88889" fill="#914D8B"/>
<rect x="31.1111" y="13" width="5.77778" height="2.88889" fill="#914D8B"/>
<rect x="28.2222" y="15.8889" width="11.5556" height="2.88889" fill="#914D8B"/>
<rect x="36.8889" y="18.7778" width="2.88889" height="2.88889" fill="#914D8B"/>
<rect x="28.2222" y="18.7778" width="2.88889" height="2.88889" fill="#914D8B"/>
<rect x="19.5556" y="36.1111" width="2.88889" height="2.88889" fill="#914D8B"/>
<rect x="22.4444" y="36.1111" width="2.88889" height="2.88889" fill="#914D8B"/>
<rect x="25.3333" y="36.1111" width="2.88889" height="2.88889" fill="#914D8B"/>
<rect x="13.7778" y="30.3333" width="20.2222" height="2.88889" fill="#914D8B"/>
<rect x="16.6667" y="33.2222" width="14.4444" height="2.88889" fill="#914D8B"/>
<rect x="10.8889" y="27.4444" width="26" height="2.88889" fill="#914D8B"/>
</svg>
